<?xml version="1.0" encoding="utf-8"?>
<!-- Generator: Adobe Illustrator 25.4.1, SVG Export Plug-In . SVG Version: 6.00 Build 0)  -->
<svg version="1.1" id="Layer_1" xmlns="http://www.w3.org/2000/svg" xmlns:xlink="http://www.w3.org/1999/xlink" x="0px" y="0px"
	 viewBox="0 0 85.41 79.71" style="enable-background:new 0 0 85.41 79.71;" xml:space="preserve">
<style type="text/css">
	.st0{fill:#28160E;stroke:#28160E;stroke-width:3;stroke-miterlimit:10;}
	.st1{fill:none;stroke:#28160E;stroke-width:3;stroke-miterlimit:10;}
	.st2{fill:none;stroke:#28160E;stroke-width:0.5;stroke-miterlimit:10;}
</style>
<path class="st0" d="M68.29,46.08L37.9,71.6L5.97,33.55c-6.77-8.07-5.72-20.1,2.35-26.88l0.66-0.55c8.35-7.01,20.8-5.92,27.82,2.43
	L68.29,46.08z"/>
<path class="st0" d="M17.12,46.34l30.39,25.51l31.94-38.04c6.77-8.07,5.72-20.1-2.35-26.88l-0.66-0.55
	c-8.35-7.01-20.8-5.92-27.82,2.43L17.12,46.34z"/>
<line class="st1" x1="38.65" y1="72.49" x2="43.61" y2="78.4"/>
<line class="st1" x1="46.63" y1="72.9" x2="42.05" y2="78.35"/>
<line class="st1" x1="40.04" y1="70.09" x2="44.07" y2="74.89"/>
<line class="st1" x1="41.31" y1="68.14" x2="45.34" y2="72.94"/>
<line class="st2" x1="42.64" y1="79.54" x2="43.04" y2="79.12"/>
</svg>
